<svg version="1.1" xmlns="http://www.w3.org/2000/svg" xmlns:xlink="http://www.w3.org/1999/xlink" width="128px" height="128px" viewBox="0,0,256,256"><g transform="translate(19.2,19.2) scale(0.85,0.85)"><g fill="none" fill-rule="nonzero" stroke="none" stroke-width="1" stroke-linecap="butt" stroke-linejoin="miter" stroke-miterlimit="10" stroke-dasharray="" stroke-dashoffset="0" font-family="none" font-weight="none" font-size="none" text-anchor="none" style="mix-blend-mode: normal"><g transform="translate(0.00391,-0.00132) scale(2,2)"><path d="M2.5441,127l60.809,-62.332c0.38739,-0.38277 0.44466,-0.98819 0.1359,-1.4368c-3.6977,-5.1625 -10.521,-6.0578 -13.05,-9.5268c-7.4903,-10.275 -9.3909,-16.092 -12.61,-15.731c-0.22463,0.03232 -0.43118,0.14131 -0.58464,0.3085l-21.966,22.518c-12.638,12.944 -14.454,41.475 -14.782,65.367c-0.00223,0.48639 0.29158,0.92524 0.74213,1.1085c0.45055,0.18326 0.96726,0.07408 1.30517,-0.27577z" fill="#017cee"></path><path d="M126.99,125.46l-62.332,-60.813c-0.38307,-0.38854 -0.98986,-0.44585 -1.4389,-0.1359c-5.1625,3.6998 -6.0578,10.521 -9.5268,13.05c-10.275,7.4903 -16.092,9.3909 -15.731,12.61c0.03279,0.22386 0.14174,0.42957 0.3085,0.58248l22.518,21.966c12.944,12.638 41.475,14.454 65.367,14.782c0.48387,0.00037 0.91985,-0.29208 1.10306,-0.73992c0.18321,-0.44784 0.07722,-0.96201 -0.26817,-1.30088z" fill="#00ad46"></path><path d="M60.792,112.72c-7.076,-6.9035 -10.355,-20.559 3.2058,-48.719c-22.046,9.8525 -29.771,22.803 -25.972,26.511z" fill="#04d659"></path><path d="M125.45,1.0113l-60.807,62.332c-0.38826,0.38236 -0.44558,0.98843 -0.1359,1.4368c3.6998,5.1625 10.519,6.0578 13.05,9.5268c7.4903,10.275 9.393,16.092 12.61,15.731c0.22474,-0.03197 0.4314,-0.14102 0.58464,-0.3085l21.966,-22.518c12.638,-12.944 14.454,-41.475 14.782,-65.367c0.00093,-0.48629 -0.2934,-0.92448 -0.74392,-1.10753c-0.45052,-0.18305 -0.96706,-0.07433 -1.30558,0.2748z" fill="#00c7d4"></path><path d="M112.73,67.211c-6.9035,7.076 -20.559,10.355 -48.721,-3.2058c9.8525,22.046 22.803,29.771 26.511,25.972z" fill="#11e1ee"></path><path d="M1.0017,2.5495l62.332,60.807c0.38277,0.38739 0.98819,0.44466 1.4368,0.1359c5.1625,-3.6998 6.0578,-10.521 9.5268,-13.05c10.275,-7.4903 16.092,-9.3909 15.731,-12.61c-0.03283,-0.22446 -0.14174,-0.43084 -0.3085,-0.58463l-22.518,-21.966c-12.944,-12.638 -41.475,-14.454 -65.367,-14.782c-0.48738,-0.00317 -0.9275,0.29099 -1.11096,0.74253c-0.18347,0.45154 -0.07324,0.96931 0.27823,1.30697z" fill="#e43921"></path><path d="M67.212,15.284c7.076,6.9035 10.355,20.559 -3.2058,48.721c22.046,-9.8525 29.771,-22.805 25.972,-26.511z" fill="#ff7557"></path><path d="M15.279,60.8c6.9035,-7.076 20.559,-10.355 48.721,3.2058c-9.8525,-22.046 -22.803,-29.771 -26.511,-25.972z" fill="#0cb6ff"></path><circle cx="64.009" cy="63.995" r="2.7182" fill="#4a4848"></circle></g></g></g></svg>